<svg width="407" height="102" viewBox="0 0 407 102" fill="none" xmlns="http://www.w3.org/2000/svg">
<g id="Frame 3">
<path id="Union" d="M306.78 50.9395C306.78 56.5764 307.962 62.1583 310.257 67.3662C312.552 72.5742 315.916 77.307 320.157 81.293C324.398 85.2787 329.432 88.4405 334.973 90.5977C340.513 92.7548 346.452 93.8652 352.449 93.8652C358.447 93.8652 364.386 92.7549 369.927 90.5977C375.467 88.4405 380.502 85.2787 384.742 81.293C388.983 77.307 392.348 72.5742 394.643 67.3662C396.938 62.1584 398.118 56.5764 398.118 50.9395H406.433C406.433 57.6025 405.036 64.2005 402.323 70.3564C399.61 76.5125 395.634 82.1067 390.621 86.8184C385.608 91.5299 379.657 95.2675 373.107 97.8174C366.558 100.367 359.538 101.68 352.449 101.68C345.36 101.68 338.34 100.367 331.791 97.8174C325.242 95.2675 319.291 91.5298 314.278 86.8184C309.266 82.1067 305.289 76.5125 302.576 70.3564C299.863 64.2005 298.467 57.6026 298.467 50.9395H298.551C298.551 45.3024 297.369 39.7206 295.074 34.5127C292.779 29.3048 289.415 24.5729 285.175 20.5869C280.934 16.6009 275.899 13.4385 270.358 11.2812C264.818 9.1241 258.879 8.01368 252.882 8.01367C246.885 8.01367 240.946 9.12411 235.405 11.2812C229.864 13.4385 224.83 16.6009 220.589 20.5869C216.348 24.5729 212.984 29.3048 210.689 34.5127C208.394 39.7207 206.95 45.3629 206.95 51H206.965C206.965 57.6632 205.568 64.261 202.855 70.417C200.143 76.5729 196.167 82.1664 191.154 86.8779C186.142 91.5896 180.19 95.327 173.641 97.877C167.091 100.427 160.072 101.739 152.982 101.739C145.893 101.739 138.874 100.427 132.324 97.877C125.775 95.327 119.824 91.5895 114.812 86.8779C109.799 82.1663 105.822 76.573 103.109 70.417C100.397 64.261 99 57.6632 99 51H99.0283C99.0283 45.3341 97.8539 39.7239 95.5732 34.4893C93.2925 29.2546 89.9505 24.4976 85.7363 20.4912C81.5222 16.4848 76.5188 13.3069 71.0127 11.1387C65.5065 8.9704 59.6044 7.85449 53.6445 7.85449C47.6849 7.85455 41.7834 8.97046 36.2773 11.1387C30.7713 13.3069 25.7679 16.4848 21.5537 20.4912C17.3395 24.4976 13.9965 29.2546 11.7158 34.4893C9.43524 39.7238 8.26172 45.3342 8.26172 51H0C-3.74328e-07 44.3027 1.3872 37.6709 4.08301 31.4834C6.77889 25.2959 10.7306 19.6733 15.7119 14.9375C20.6933 10.2017 26.6077 6.44483 33.1162 3.88184C39.6245 1.31899 46.6001 5.82848e-05 53.6445 0C60.6892 -2.92749e-07 67.6654 1.31892 74.1738 3.88184C80.6823 6.44483 86.5967 10.2017 91.5781 14.9375C96.5594 19.6733 100.51 25.2959 103.206 31.4834C105.902 37.671 107.29 44.3026 107.29 51H107.313C107.313 56.637 108.495 62.2188 110.79 67.4268C113.085 72.6346 116.449 77.3666 120.689 81.3525C124.93 85.3385 129.965 88.501 135.506 90.6582C141.047 92.8154 146.985 93.9258 152.982 93.9258C158.98 93.9258 164.918 92.8153 170.459 90.6582C176 88.501 181.035 85.3385 185.275 81.3525C189.516 77.3666 192.88 72.6346 195.175 67.4268C197.47 62.2188 198.651 56.6371 198.651 51H198.65C198.65 44.3368 200.296 37.6785 203.009 31.5225C205.722 25.3666 209.697 19.7731 214.71 15.0615C219.723 10.3499 225.674 6.61241 232.224 4.0625C238.773 1.51259 245.793 0.200196 252.882 0.200195C259.971 0.200202 266.991 1.51259 273.54 4.0625C280.089 6.6124 286.04 10.35 291.053 15.0615C296.065 19.7731 300.042 25.3664 302.755 31.5225C305.468 37.6785 306.864 44.2763 306.864 50.9395H306.78Z" fill="#D9D9D9"/>
<path id="Ellipse 8" d="M4.5 42.5C6.70914 42.5 8.5 44.2909 8.5 46.5C8.5 48.7091 6.70914 50.5 4.5 50.5C2.29086 50.5 0.5 48.7091 0.5 46.5C0.5 44.2909 2.29086 42.5 4.5 42.5Z" fill="#054CFF" stroke="black"/>
</g>
</svg>
